<svg width="1200" height="260" viewBox="0 0 1200 260" fill="none" xmlns="http://www.w3.org/2000/svg">
<rect width="1200" height="260" rx="57" fill="white" fill-opacity="0.1"/>
<path d="M541.81 105.752H532.887L546.483 66.5362H557.214L570.791 105.752H561.868L552.002 75.4977H551.695L541.81 105.752ZM541.253 90.3378H562.329V96.81H541.253V90.3378Z" fill="white" fill-opacity="0.2"/>
<path d="M589.492 105.752H575.531V66.5362H589.608C593.569 66.5362 596.98 67.3212 599.839 68.8914C602.697 70.4488 604.896 72.6892 606.435 75.6126C607.986 78.5359 608.762 82.0337 608.762 86.1059C608.762 90.191 607.986 93.7015 606.435 96.6376C604.896 99.5737 602.685 101.827 599.8 103.397C596.928 104.967 593.492 105.752 589.492 105.752ZM583.858 98.6482H589.146C591.608 98.6482 593.678 98.2142 595.358 97.3461C597.05 96.4653 598.319 95.1057 599.165 93.2675C600.024 91.4165 600.454 89.0293 600.454 86.1059C600.454 83.2081 600.024 80.8401 599.165 79.0018C598.319 77.1636 597.057 75.8104 595.377 74.9424C593.698 74.0743 591.627 73.6403 589.166 73.6403H583.858V98.6482Z" fill="white" fill-opacity="0.2"/>
<path d="M636.295 77.8146C636.141 76.27 635.481 75.07 634.314 74.2147C633.148 73.3594 631.564 72.9318 629.564 72.9318C628.205 72.9318 627.058 73.1232 626.122 73.5062C625.186 73.8764 624.468 74.3934 623.968 75.0572C623.481 75.7211 623.237 76.4742 623.237 77.3168C623.212 78.0189 623.359 78.6316 623.68 79.155C624.013 79.6784 624.468 80.1316 625.045 80.5146C625.622 80.8848 626.289 81.2103 627.045 81.4912C627.801 81.7592 628.609 81.989 629.468 82.1805L633.007 83.023C634.724 83.406 636.301 83.9166 637.737 84.5549C639.173 85.1932 640.417 85.9783 641.468 86.9102C642.519 87.8421 643.333 88.9399 643.91 90.2037C644.5 91.4675 644.801 92.9164 644.814 94.5504C644.801 96.9504 644.186 99.0312 642.968 100.793C641.763 102.542 640.019 103.901 637.737 104.871C635.468 105.829 632.731 106.308 629.526 106.308C626.346 106.308 623.577 105.823 621.218 104.852C618.872 103.882 617.039 102.446 615.718 100.544C614.411 98.6291 613.725 96.261 613.661 93.4398H621.718C621.808 94.7547 622.186 95.8525 622.853 96.7334C623.532 97.6014 624.436 98.2589 625.564 98.7057C626.705 99.1397 627.994 99.3567 629.43 99.3567C630.84 99.3567 632.064 99.1525 633.103 98.744C634.154 98.3355 634.968 97.7674 635.545 97.0397C636.122 96.3121 636.41 95.476 636.41 94.5313C636.41 93.6505 636.148 92.91 635.622 92.3101C635.109 91.7101 634.353 91.1994 633.353 90.7782C632.365 90.3569 631.154 89.9739 629.718 89.6293L625.43 88.557C622.109 87.7527 619.487 86.4953 617.564 84.7847C615.641 83.0741 614.686 80.7699 614.699 77.8721C614.686 75.4977 615.321 73.4232 616.603 71.6488C617.898 69.8744 619.673 68.4893 621.93 67.4936C624.186 66.4979 626.75 66 629.622 66C632.545 66 635.096 66.4979 637.276 67.4936C639.468 68.4893 641.173 69.8744 642.391 71.6488C643.609 73.4232 644.237 75.4785 644.276 77.8146H636.295Z" fill="white" fill-opacity="0.2"/>
<path d="M442.531 192.332V145.949H448.773V192.332H442.531ZM433 151.563V145.949H448.102V151.563H433Z" fill="white" fill-opacity="0.2"/>
<path d="M456.403 188.522L473.586 170.477C475.331 168.695 476.696 167.158 477.68 165.866C478.665 164.529 479.358 163.304 479.761 162.19C480.208 161.076 480.432 159.918 480.432 158.715C480.432 156.353 479.671 154.504 478.15 153.167C476.629 151.831 474.66 151.162 472.244 151.162C469.872 151.162 467.791 151.742 466.001 152.9C464.212 154.014 462.623 155.752 461.236 158.113L456.806 154.437C458.641 151.407 460.856 149.135 463.451 147.62C466.046 146.061 469.044 145.281 472.445 145.281C475.309 145.281 477.792 145.838 479.895 146.952C482.043 148.066 483.699 149.625 484.862 151.63C486.025 153.635 486.607 155.974 486.607 158.648C486.607 160.564 486.361 162.279 485.869 163.794C485.421 165.309 484.594 166.868 483.385 168.472C482.222 170.032 480.589 171.903 478.486 174.086L464.592 188.322L456.403 188.522ZM456.403 192.332V188.522L461.773 186.718H487.681V192.332H456.403Z" fill="white" fill-opacity="0.2"/>
<path d="M512.651 193C509.16 193 505.961 192.02 503.052 190.059C500.189 188.099 497.907 185.336 496.206 181.772C494.506 178.163 493.656 173.93 493.656 169.074C493.656 164.217 494.484 160.007 496.139 156.442C497.84 152.878 500.122 150.138 502.985 148.222C505.849 146.261 509.004 145.281 512.449 145.281C515.984 145.281 519.184 146.261 522.047 148.222C524.911 150.138 527.171 152.878 528.826 156.442C530.527 160.007 531.377 164.239 531.377 169.141C531.377 173.997 530.527 178.23 528.826 181.839C527.171 185.403 524.911 188.166 522.047 190.126C519.228 192.042 516.096 193 512.651 193ZM512.516 187.052C514.977 187.052 517.125 186.384 518.96 185.047C520.839 183.666 522.316 181.638 523.39 178.965C524.464 176.292 525.001 172.995 525.001 169.074C525.001 165.153 524.464 161.878 523.39 159.249C522.316 156.576 520.839 154.571 518.96 153.234C517.08 151.853 514.91 151.162 512.449 151.162C510.033 151.162 507.885 151.853 506.006 153.234C504.126 154.571 502.65 156.576 501.576 159.249C500.547 161.878 500.032 165.153 500.032 169.074C500.032 172.995 500.547 176.292 501.576 178.965C502.65 181.638 504.126 183.666 506.006 185.047C507.885 186.384 510.055 187.052 512.516 187.052Z" fill="white" fill-opacity="0.2"/>
<path d="M556.698 193C553.208 193 550.008 192.02 547.1 190.059C544.236 188.099 541.954 185.336 540.254 181.772C538.553 178.163 537.703 173.93 537.703 169.074C537.703 164.217 538.531 160.007 540.186 156.442C541.887 152.878 544.169 150.138 547.033 148.222C549.896 146.261 553.051 145.281 556.497 145.281C560.031 145.281 563.231 146.261 566.095 148.222C568.958 150.138 571.218 152.878 572.874 156.442C574.574 160.007 575.424 164.239 575.424 169.141C575.424 173.997 574.574 178.23 572.874 181.839C571.218 185.403 568.958 188.166 566.095 190.126C563.276 192.042 560.143 193 556.698 193ZM556.564 187.052C559.025 187.052 561.173 186.384 563.007 185.047C564.886 183.666 566.363 181.638 567.437 178.965C568.511 176.292 569.048 172.995 569.048 169.074C569.048 165.153 568.511 161.878 567.437 159.249C566.363 156.576 564.886 154.571 563.007 153.234C561.128 151.853 558.958 151.162 556.497 151.162C554.08 151.162 551.932 151.853 550.053 153.234C548.174 154.571 546.697 156.576 545.623 159.249C544.594 161.878 544.079 165.153 544.079 169.074C544.079 172.995 544.594 176.292 545.623 178.965C546.697 181.638 548.174 183.666 550.053 185.047C551.932 186.384 554.103 187.052 556.564 187.052Z" fill="white" fill-opacity="0.2"/>
<path d="M629.54 192.332L614.908 171.079H613.767L595.376 145.949H602.893L617.391 165.933H618.532L636.923 192.332H629.54ZM594.571 192.332L612.626 167.67L616.921 171.413L601.685 192.332H594.571ZM618.935 169.943L614.707 166.2L629.07 145.949H636.185L618.935 169.943Z" fill="white" fill-opacity="0.2"/>
<path d="M655.14 188.522L672.323 170.477C674.068 168.695 675.433 167.158 676.417 165.866C677.402 164.529 678.095 163.304 678.498 162.19C678.945 161.076 679.169 159.918 679.169 158.715C679.169 156.353 678.409 154.504 676.887 153.167C675.366 151.831 673.397 151.162 670.981 151.162C668.609 151.162 666.528 151.742 664.738 152.9C662.949 154.014 661.36 155.752 659.973 158.113L655.543 154.437C657.378 151.407 659.593 149.135 662.188 147.62C664.783 146.061 667.781 145.281 671.182 145.281C674.046 145.281 676.529 145.838 678.632 146.952C680.78 148.066 682.436 149.625 683.599 151.63C684.763 153.635 685.344 155.974 685.344 158.648C685.344 160.564 685.098 162.279 684.606 163.794C684.158 165.309 683.331 166.868 682.122 168.472C680.959 170.032 679.326 171.903 677.223 174.086L663.329 188.322L655.14 188.522ZM655.14 192.332V188.522L660.51 186.718H686.418V192.332H655.14Z" fill="white" fill-opacity="0.2"/>
<path d="M708.166 193C705.078 193 702.304 192.287 699.843 190.861C697.427 189.436 695.503 187.52 694.071 185.114C692.639 182.708 691.923 180.034 691.923 177.094C691.923 172.995 693.355 168.918 696.219 164.863L709.911 145.949H717.227L703.199 164.997L700.917 166.2C701.454 165.264 702.103 164.484 702.863 163.861C703.624 163.192 704.564 162.68 705.683 162.324C706.801 161.967 708.121 161.789 709.643 161.789C712.372 161.789 714.833 162.435 717.026 163.727C719.263 165.019 721.053 166.801 722.395 169.074C723.782 171.301 724.476 173.908 724.476 176.893C724.476 179.834 723.738 182.529 722.261 184.98C720.829 187.431 718.86 189.391 716.355 190.861C713.893 192.287 711.164 193 708.166 193ZM708.166 187.119C710.045 187.119 711.723 186.673 713.2 185.782C714.721 184.846 715.907 183.621 716.757 182.106C717.652 180.547 718.1 178.809 718.1 176.893C718.1 174.977 717.652 173.262 716.757 171.747C715.907 170.188 714.721 168.962 713.2 168.071C711.723 167.18 710.045 166.735 708.166 166.735C706.287 166.735 704.586 167.18 703.065 168.071C701.588 168.962 700.402 170.188 699.508 171.747C698.657 173.262 698.232 174.977 698.232 176.893C698.232 178.809 698.657 180.547 699.508 182.106C700.402 183.666 701.588 184.891 703.065 185.782C704.586 186.673 706.287 187.119 708.166 187.119Z" fill="white" fill-opacity="0.2"/>
<path d="M749.274 193C745.783 193 742.584 192.02 739.675 190.059C736.812 188.099 734.53 185.336 732.829 181.772C731.129 178.163 730.279 173.93 730.279 169.074C730.279 164.217 731.107 160.007 732.762 156.442C734.463 152.878 736.745 150.138 739.608 148.222C742.472 146.261 745.627 145.281 749.072 145.281C752.607 145.281 755.807 146.261 758.67 148.222C761.534 150.138 763.794 152.878 765.449 156.442C767.15 160.007 768 164.239 768 169.141C768 173.997 767.15 178.23 765.449 181.839C763.794 185.403 761.534 188.166 758.67 190.126C755.851 192.042 752.719 193 749.274 193ZM749.139 187.052C751.6 187.052 753.748 186.384 755.583 185.047C757.462 183.666 758.939 181.638 760.013 178.965C761.087 176.292 761.624 172.995 761.624 169.074C761.624 165.153 761.087 161.878 760.013 159.249C758.939 156.576 757.462 154.571 755.583 153.234C753.704 151.853 751.533 151.162 749.072 151.162C746.656 151.162 744.508 151.853 742.629 153.234C740.749 154.571 739.273 156.576 738.199 159.249C737.17 161.878 736.655 165.153 736.655 169.074C736.655 172.995 737.17 176.292 738.199 178.965C739.273 181.638 740.749 183.666 742.629 185.047C744.508 186.384 746.678 187.052 749.139 187.052Z" fill="white" fill-opacity="0.2"/>
</svg>
