<svg width="72" height="72" viewBox="0 0 72 72" fill="none" xmlns="http://www.w3.org/2000/svg">
<rect x="0.5" y="0.5" width="71" height="71" rx="10.5" fill="white" fill-opacity="0.1"/>
<rect x="0.5" y="0.5" width="71" height="71" rx="10.5" stroke="url(#paint0_linear_836_42)"/>
<path fill-rule="evenodd" clip-rule="evenodd" d="M25.708 48.8332C24.4814 48.8332 23.305 48.3459 22.4376 47.4785C21.5703 46.6112 21.083 45.4348 21.083 44.2082V28.7915C21.083 27.5649 21.5703 26.3885 22.4376 25.5211C23.305 24.6538 24.4814 24.1665 25.708 24.1665H47.2913C48.518 24.1665 49.6944 24.6538 50.5617 25.5211C51.4291 26.3885 51.9163 27.5649 51.9163 28.7915V44.2082C51.9163 45.4348 51.4291 46.6112 50.5617 47.4785C49.6944 48.3459 48.518 48.8332 47.2913 48.8332H25.708ZM29.7549 30.6723C29.5978 30.5382 29.4155 30.4371 29.2186 30.3748C29.0217 30.3125 28.8143 30.2905 28.6087 30.3099C28.4031 30.3293 28.2035 30.3899 28.0217 30.4879C27.84 30.586 27.6798 30.7196 27.5507 30.8807C27.4216 31.0419 27.3261 31.2273 27.27 31.4261C27.214 31.6248 27.1984 31.8328 27.2242 32.0377C27.2501 32.2426 27.3168 32.4402 27.4205 32.6188C27.5242 32.7974 27.6627 32.9533 27.8278 33.0773L33.6091 37.7039C34.4294 38.3606 35.4488 38.7185 36.4997 38.7185C37.5505 38.7185 38.57 38.3606 39.3903 37.7039L45.1716 33.0789C45.3297 32.9523 45.4613 32.7959 45.559 32.6185C45.6566 32.4411 45.7184 32.2462 45.7407 32.0449C45.7631 31.8436 45.7455 31.6399 45.6891 31.4454C45.6327 31.2509 45.5386 31.0694 45.4121 30.9113C45.2855 30.7532 45.1291 30.6215 44.9517 30.5239C44.7743 30.4262 44.5793 30.3645 44.3781 30.3421C44.1768 30.3198 43.9731 30.3373 43.7786 30.3937C43.5841 30.4501 43.4026 30.5443 43.2445 30.6708L37.4632 35.2958C37.1898 35.5147 36.85 35.634 36.4997 35.634C36.1494 35.634 35.8096 35.5147 35.5361 35.2958L29.7549 30.6723Z" fill="url(#paint1_linear_836_42)"/>
<defs>
<linearGradient id="paint0_linear_836_42" x1="36" y1="1" x2="36" y2="71" gradientUnits="userSpaceOnUse">
<stop stop-color="#D800FB" stop-opacity="0"/>
<stop offset="1" stop-color="#DA0FFB" stop-opacity="0.34"/>
</linearGradient>
<linearGradient id="paint1_linear_836_42" x1="36.4997" y1="24.1665" x2="36.4997" y2="48.8332" gradientUnits="userSpaceOnUse">
<stop stop-color="#FF9900"/>
<stop offset="1" stop-color="#AD01FF"/>
</linearGradient>
</defs>
</svg>
