<svg width="72" height="72" viewBox="0 0 72 72" fill="none" xmlns="http://www.w3.org/2000/svg">
<rect x="0.5" y="0.5" width="71" height="71" rx="10.5" fill="white" fill-opacity="0.1"/>
<rect x="0.5" y="0.5" width="71" height="71" rx="10.5" stroke="url(#paint0_linear_833_34)"/>
<path fill-rule="evenodd" clip-rule="evenodd" d="M47.666 25.6449C48.0366 25.4889 48.4424 25.4351 48.8409 25.4891C49.2394 25.5431 49.6162 25.703 49.932 25.952C50.2478 26.201 50.4911 26.5301 50.6365 26.9051C50.782 27.28 50.8242 27.6871 50.759 28.0839L47.357 48.7194C47.027 50.7099 44.843 51.8514 43.0175 50.8599C41.4905 50.0304 39.2225 48.7524 37.1825 47.4189C36.1625 46.7514 33.038 44.6139 33.422 43.0929C33.752 41.7924 39.002 36.9054 42.002 33.9999C43.1795 32.8584 42.6425 32.1999 41.252 33.2499C37.799 35.8569 32.255 39.8214 30.422 40.9374C28.805 41.9214 27.962 42.0894 26.954 41.9214C25.115 41.6154 23.4095 41.1414 22.0175 40.5639C20.1365 39.7839 20.228 37.1979 22.016 36.4449L47.666 25.6449Z" fill="url(#paint1_linear_833_34)"/>
<defs>
<linearGradient id="paint0_linear_833_34" x1="36" y1="1" x2="36" y2="71" gradientUnits="userSpaceOnUse">
<stop stop-color="#D800FB" stop-opacity="0"/>
<stop offset="1" stop-color="#DA0FFB" stop-opacity="0.34"/>
</linearGradient>
<linearGradient id="paint1_linear_833_34" x1="35.7147" y1="25.4688" x2="35.7147" y2="51.2237" gradientUnits="userSpaceOnUse">
<stop stop-color="#FF9900"/>
<stop offset="1" stop-color="#AD01FF"/>
</linearGradient>
</defs>
</svg>
